<svg width="276" height="98" viewBox="0 0 276 98" fill="none" xmlns="http://www.w3.org/2000/svg">
<path d="M16.698 24.156C16.698 21.087 14.421 18.942 10.857 17.622L7.887 16.533C4.488 15.279 3.366 13.926 3.366 12.144C3.366 10.296 4.818 8.844 7.359 8.844C9.867 8.844 12.408 9.933 15.378 14.949L15.972 14.685L13.431 7.26L12.804 7.425C12.87 8.151 12.474 8.448 11.814 8.448C10.758 8.448 9.372 7.821 7.359 7.821C3.762 7.821 0.924 10.065 0.924 13.695C0.924 16.995 3.465 19.008 6.369 20.097L9.207 21.153C12.639 22.44 14.025 23.892 14.025 26.136C14.025 28.413 12.21 29.931 9.702 29.931C6.633 29.931 3.894 28.578 0.594 22.671L0 22.935L2.376 31.086L3.003 30.921C2.97 30.228 3.333 29.931 3.96 29.931C4.818 29.931 6.798 30.954 9.702 30.954C13.134 30.954 16.698 28.611 16.698 24.156Z" fill="#003720"/>
<path d="M29.6642 30.954C35.2742 30.954 39.8612 26.235 39.8612 19.371C39.8612 12.507 35.2742 7.821 29.6642 7.821C24.0542 7.821 19.4672 12.507 19.4672 19.371C19.4672 26.235 24.0542 30.954 29.6642 30.954ZM29.6642 29.931C24.8792 29.931 23.4932 25.014 23.4932 19.371C23.4932 13.728 24.8792 8.844 29.6642 8.844C34.4492 8.844 35.8352 13.728 35.8352 19.371C35.8352 25.014 34.4492 29.931 29.6642 29.931Z" fill="#003720"/>
<path d="M51.9188 30.888C56.2748 30.888 59.5418 27.786 60.9938 24.09L60.3668 23.826C59.0468 26.565 56.9678 28.347 53.9978 28.347C49.4108 28.347 45.4508 23.826 45.4508 16.896C45.4508 11.88 48.5528 8.844 52.1168 8.844C54.2948 8.844 56.9018 9.768 60.3008 15.741L60.8618 15.477L58.1888 7.26L57.5948 7.425C57.6278 8.085 57.3308 8.448 56.5388 8.448C55.5818 8.448 54.3278 7.821 52.1168 7.821C47.6948 7.821 42.3158 11.847 42.3158 19.305C42.3158 26.103 46.5728 30.888 51.9188 30.888Z" fill="#003720"/>
<path d="M68.9061 27.852V10.923C68.9061 9.405 69.3681 8.844 70.6881 8.844H70.7871V8.151H69.7971C68.9391 8.151 68.1471 8.25 67.0911 8.25C66.0681 8.25 65.3091 8.151 64.4181 8.151H63.4281V8.844H63.5271C64.8471 8.844 65.3091 9.405 65.3091 10.923V27.852C65.3091 29.37 64.8471 29.931 63.5271 29.931H63.4281V30.624H64.4181C65.3091 30.624 66.0681 30.525 67.0911 30.525C68.1471 30.525 68.9391 30.624 69.7971 30.624H70.7871V29.931H70.6881C69.3681 29.931 68.9061 29.37 68.9061 27.852Z" fill="#003720"/>
<path d="M80.5432 6.765C82.3252 4.422 83.8432 3.465 84.8992 2.079C85.0972 1.815 85.1962 1.485 85.1962 1.221C85.1962 0.560999 84.6352 0 83.9422 0C83.5132 0 83.0842 0.297 82.8202 0.726C82.0612 2.013 81.5662 3.894 80.0152 6.402L80.5432 6.765ZM89.0902 31.746L92.1922 23.166L91.5982 22.869C89.7502 25.641 88.2982 27.588 87.3082 28.545C86.3512 29.469 85.6252 29.568 84.3712 29.568H79.0252V19.734H82.6552C84.9652 19.734 85.3612 21.582 85.6582 24.024H86.3182V14.52H85.6582C85.3612 16.962 84.9652 18.711 82.6552 18.711H79.0252V9.207H84.1402C85.3612 9.207 86.1532 9.306 86.9782 10.065C87.9352 10.989 89.0572 12.507 91.0372 15.246L91.6312 14.982L88.8592 7.029L88.1992 7.194C88.2322 7.821 87.9022 8.151 87.0112 8.151H80.6752C79.6192 8.151 78.4312 8.184 77.2432 8.184C76.1872 8.184 75.4282 8.151 74.5372 8.151H73.5472V8.844H73.6462C74.9662 8.844 75.4282 9.405 75.4282 10.923V27.852C75.4282 29.37 74.9662 29.931 73.6462 29.931H73.5472V30.624H74.5372C75.4282 30.624 76.1872 30.591 77.2432 30.591C78.4312 30.591 79.2562 30.624 80.3122 30.624H87.2422C88.1332 30.624 88.4632 30.954 88.4302 31.581L89.0902 31.746Z" fill="#003720"/>
<path d="M107.793 29.931H107.727C106.374 29.931 105.912 29.37 105.912 27.852V9.207H108.288C109.311 9.207 109.773 9.24 110.499 10.164C111.291 11.154 112.149 12.705 114.096 16.302L114.723 16.038L112.413 7.062L111.753 7.161C111.753 7.788 111.423 8.151 110.532 8.151H107.364C106.473 8.151 105.384 8.184 104.13 8.184C102.843 8.184 101.787 8.151 100.863 8.151H97.7277C96.8367 8.151 96.4737 7.788 96.4737 7.161L95.8137 7.062L93.5367 16.038L94.1637 16.302C96.0777 12.705 96.9687 11.154 97.7277 10.164C98.4537 9.24 98.9157 9.207 99.9387 9.207H102.315V27.852C102.315 29.37 101.853 29.931 100.533 29.931H100.434V30.624H101.424C102.315 30.624 103.107 30.525 104.13 30.525C105.153 30.525 105.945 30.624 106.803 30.624H107.793V29.931Z" fill="#003720"/>
<path d="M123.469 6.765C125.251 4.422 126.769 3.465 127.825 2.079C128.023 1.815 128.122 1.485 128.122 1.221C128.122 0.560999 127.561 0 126.868 0C126.439 0 126.01 0.297 125.746 0.726C124.987 2.013 124.492 3.894 122.941 6.402L123.469 6.765ZM132.016 31.746L135.118 23.166L134.524 22.869C132.676 25.641 131.224 27.588 130.234 28.545C129.277 29.469 128.551 29.568 127.297 29.568H121.951V19.734H125.581C127.891 19.734 128.287 21.582 128.584 24.024H129.244V14.52H128.584C128.287 16.962 127.891 18.711 125.581 18.711H121.951V9.207H127.066C128.287 9.207 129.079 9.306 129.904 10.065C130.861 10.989 131.983 12.507 133.963 15.246L134.557 14.982L131.785 7.029L131.125 7.194C131.158 7.821 130.828 8.151 129.937 8.151H123.601C122.545 8.151 121.357 8.184 120.169 8.184C119.113 8.184 118.354 8.151 117.463 8.151H116.473V8.844H116.572C117.892 8.844 118.354 9.405 118.354 10.923V27.852C118.354 29.37 117.892 29.931 116.572 29.931H116.473V30.624H117.463C118.354 30.624 119.113 30.591 120.169 30.591C121.357 30.591 122.182 30.624 123.238 30.624H130.168C131.059 30.624 131.389 30.954 131.356 31.581L132.016 31.746Z" fill="#003720"/>
<path d="M19.8 52.404C19.8 45.144 15.18 41.151 9.537 41.151H7.425C6.204 41.151 5.313 41.184 3.96 41.184C2.904 41.184 2.145 41.151 1.254 41.151H0.264V41.844H0.363C1.683 41.844 2.145 42.405 2.145 43.923V60.852C2.145 62.37 1.683 62.931 0.363 62.931H0.264V63.624H1.254C2.145 63.624 2.904 63.591 3.96 63.591C5.313 63.591 6.204 63.624 7.425 63.624H9.537C15.18 63.624 19.8 59.631 19.8 52.404ZM15.774 52.404C15.774 59.664 14.025 62.568 8.976 62.568H5.742V42.207H8.976C14.025 42.207 15.774 45.078 15.774 52.404Z" fill="#003720"/>
<path d="M23.2647 48.18C25.0137 47.85 26.7627 46.068 26.7627 43.593C26.7627 41.91 25.7067 40.887 24.5187 40.887C23.2977 40.887 22.4727 41.811 22.4727 42.867C22.4727 43.956 23.2647 44.748 24.3867 44.748C25.0467 44.748 25.5747 44.418 25.7727 44.055C25.7727 45.672 24.5187 47.157 23.0667 47.454L23.2647 48.18Z" fill="#003720"/>
<path d="M49.3863 60.852V43.923C49.3863 42.405 49.8813 41.844 51.2013 41.844H51.2673V41.151H50.3103C49.4193 41.151 48.6273 41.25 47.6043 41.25C46.5813 41.25 45.7893 41.151 44.8983 41.151H43.9413V41.844H44.0073C45.3273 41.844 45.8223 42.405 45.8223 43.923V51.678H35.2293V43.923C35.2293 42.405 35.6913 41.844 37.0113 41.844H37.1103V41.151H36.1203C35.2623 41.151 34.4703 41.25 33.4473 41.25C32.3913 41.25 31.6323 41.151 30.7413 41.151H29.7513V41.844H29.8503C31.1703 41.844 31.6323 42.405 31.6323 43.923V60.852C31.6323 62.37 31.1703 62.931 29.8503 62.931H29.7513V63.624H30.7413C31.6323 63.624 32.3913 63.525 33.4473 63.525C34.4703 63.525 35.2623 63.624 36.1203 63.624H37.1103V62.931H37.0113C35.6913 62.931 35.2293 62.37 35.2293 60.852V52.701H45.8223V60.852C45.8223 62.37 45.3273 62.931 44.0073 62.931H43.9413V63.624H44.8983C45.7893 63.624 46.5813 63.525 47.6043 63.525C48.6273 63.525 49.4193 63.624 50.3103 63.624H51.2673V62.931H51.2013C49.8813 62.931 49.3863 62.37 49.3863 60.852Z" fill="#003720"/>
<path d="M63.9855 63.954C69.5955 63.954 74.1824 59.235 74.1824 52.371C74.1824 45.507 69.5955 40.821 63.9855 40.821C58.3755 40.821 53.7885 45.507 53.7885 52.371C53.7885 59.235 58.3755 63.954 63.9855 63.954ZM63.9855 62.931C59.2005 62.931 57.8145 58.014 57.8145 52.371C57.8145 46.728 59.2005 41.844 63.9855 41.844C68.7705 41.844 70.1565 46.728 70.1565 52.371C70.1565 58.014 68.7705 62.931 63.9855 62.931Z" fill="#003720"/>
<path d="M97.1662 63.624V62.931C95.8462 62.898 95.0212 62.7 93.7012 60.192L91.0282 54.978C88.5202 54.978 87.9592 54.549 87.2662 53.229H87.5302C91.9852 53.229 94.5922 50.523 94.5922 47.091C94.5922 43.296 91.4572 41.151 86.8042 41.151H83.4382C82.3822 41.151 81.5572 41.184 80.3692 41.184C79.3132 41.184 78.5542 41.151 77.6632 41.151H76.6732V41.844H76.7722C78.0922 41.844 78.5542 42.405 78.5542 43.923V60.852C78.5542 62.37 78.0922 62.931 76.7722 62.931H76.6732V63.624H77.6632C78.5542 63.624 79.3132 63.525 80.3692 63.525C81.3922 63.525 82.1842 63.624 83.0422 63.624H84.0322V62.931H83.9332C82.6132 62.931 82.1512 62.37 82.1512 60.852V53.229H86.1112L91.5232 63.624C92.4472 63.624 93.0742 63.525 93.8992 63.525C95.1202 63.525 95.4172 63.624 97.1662 63.624ZM90.7642 47.223C90.7642 50.622 89.7082 52.206 86.8372 52.206H82.1512V42.207H86.5402C89.7412 42.207 90.7642 43.989 90.7642 47.223Z" fill="#003720"/>
<path d="M111.853 62.931H111.787C110.434 62.931 109.972 62.37 109.972 60.852V42.207H112.348C113.371 42.207 113.833 42.24 114.559 43.164C115.351 44.154 116.209 45.705 118.156 49.302L118.783 49.038L116.473 40.062L115.813 40.161C115.813 40.788 115.483 41.151 114.592 41.151H111.424C110.533 41.151 109.444 41.184 108.19 41.184C106.903 41.184 105.847 41.151 104.923 41.151H101.788C100.897 41.151 100.534 40.788 100.534 40.161L99.8742 40.062L97.5972 49.038L98.2242 49.302C100.138 45.705 101.029 44.154 101.788 43.164C102.514 42.24 102.976 42.207 103.999 42.207H106.375V60.852C106.375 62.37 105.913 62.931 104.593 62.931H104.494V63.624H105.484C106.375 63.624 107.167 63.525 108.19 63.525C109.213 63.525 110.005 63.624 110.863 63.624H111.853V62.931Z" fill="#003720"/>
<path d="M126.012 60.852V43.923C126.012 42.405 126.474 41.844 127.794 41.844H127.893V41.151H126.903C126.045 41.151 125.253 41.25 124.197 41.25C123.174 41.25 122.415 41.151 121.524 41.151H120.534V41.844H120.633C121.953 41.844 122.415 42.405 122.415 43.923V60.852C122.415 62.37 121.953 62.931 120.633 62.931H120.534V63.624H121.524C122.415 63.624 123.174 63.525 124.197 63.525C125.253 63.525 126.045 63.624 126.903 63.624H127.893V62.931H127.794C126.474 62.931 126.012 62.37 126.012 60.852Z" fill="#003720"/>
<path d="M139.962 63.888C144.318 63.888 147.585 60.786 149.037 57.09L148.41 56.826C147.09 59.565 145.011 61.347 142.041 61.347C137.454 61.347 133.494 56.826 133.494 49.896C133.494 44.88 136.596 41.844 140.16 41.844C142.338 41.844 144.945 42.768 148.344 48.741L148.905 48.477L146.232 40.26L145.638 40.425C145.671 41.085 145.374 41.448 144.582 41.448C143.625 41.448 142.371 40.821 140.16 40.821C135.738 40.821 130.359 44.847 130.359 52.305C130.359 59.103 134.616 63.888 139.962 63.888Z" fill="#003720"/>
<path d="M168.829 56.463V45.903C168.829 43.791 169.522 41.844 171.568 41.844H171.634V41.151H171.007C170.314 41.151 169.357 41.25 168.334 41.25C167.311 41.25 166.321 41.151 165.628 41.151H165.001V41.844H165.067C167.146 41.877 167.806 43.791 167.806 45.903V56.463C167.806 60.258 165.595 62.601 162.163 62.601C158.401 62.601 156.487 60.489 156.487 55.704V43.989C156.487 42.405 156.949 41.844 158.269 41.844H158.368V41.151H157.378C156.487 41.151 155.728 41.25 154.672 41.25C153.649 41.25 152.89 41.151 151.999 41.151H151.009V41.844H151.108C152.428 41.844 152.89 42.405 152.89 43.989V56.496C152.89 61.578 155.662 63.888 161.074 63.888C166.156 63.888 168.829 60.885 168.829 56.463Z" fill="#003720"/>
<path d="M190.717 55.671L190.09 55.374C188.308 58.377 186.757 60.522 185.866 61.446C184.909 62.403 184.282 62.568 183.061 62.568H178.573V43.923C178.573 42.405 179.035 41.844 180.355 41.844H180.454V41.151H179.464C178.606 41.151 177.814 41.25 176.791 41.25C175.735 41.25 174.976 41.151 174.085 41.151H173.095V41.844H173.194C174.514 41.844 174.976 42.405 174.976 43.923V60.852C174.976 62.37 174.514 62.931 173.194 62.931H173.095V63.624H174.085C174.976 63.624 175.735 63.591 176.791 63.591C177.814 63.591 178.606 63.624 179.464 63.624H185.668C186.559 63.624 186.889 63.954 186.856 64.581L187.516 64.746L190.717 55.671Z" fill="#003720"/>
<path d="M203.828 62.931H203.762C202.409 62.931 201.947 62.37 201.947 60.852V42.207H204.323C205.346 42.207 205.808 42.24 206.534 43.164C207.326 44.154 208.184 45.705 210.131 49.302L210.758 49.038L208.448 40.062L207.788 40.161C207.788 40.788 207.458 41.151 206.567 41.151H203.399C202.508 41.151 201.419 41.184 200.165 41.184C198.878 41.184 197.822 41.151 196.898 41.151H193.763C192.872 41.151 192.509 40.788 192.509 40.161L191.849 40.062L189.572 49.038L190.199 49.302C192.113 45.705 193.004 44.154 193.763 43.164C194.489 42.24 194.951 42.207 195.974 42.207H198.35V60.852C198.35 62.37 197.888 62.931 196.568 62.931H196.469V63.624H197.459C198.35 63.624 199.142 63.525 200.165 63.525C201.188 63.525 201.98 63.624 202.838 63.624H203.828V62.931Z" fill="#003720"/>
<path d="M229.866 56.463V45.903C229.866 43.791 230.559 41.844 232.605 41.844H232.671V41.151H232.044C231.351 41.151 230.394 41.25 229.371 41.25C228.348 41.25 227.358 41.151 226.665 41.151H226.038V41.844H226.104C228.183 41.877 228.843 43.791 228.843 45.903V56.463C228.843 60.258 226.632 62.601 223.2 62.601C219.438 62.601 217.524 60.489 217.524 55.704V43.989C217.524 42.405 217.986 41.844 219.306 41.844H219.405V41.151H218.415C217.524 41.151 216.765 41.25 215.709 41.25C214.686 41.25 213.927 41.151 213.036 41.151H212.046V41.844H212.145C213.465 41.844 213.927 42.405 213.927 43.989V56.496C213.927 61.578 216.699 63.888 222.111 63.888C227.193 63.888 229.866 60.885 229.866 56.463Z" fill="#003720"/>
<path d="M254.625 63.624V62.931C253.305 62.898 252.48 62.7 251.16 60.192L248.487 54.978C245.979 54.978 245.418 54.549 244.725 53.229H244.989C249.444 53.229 252.051 50.523 252.051 47.091C252.051 43.296 248.916 41.151 244.263 41.151H240.897C239.841 41.151 239.016 41.184 237.828 41.184C236.772 41.184 236.013 41.151 235.122 41.151H234.132V41.844H234.231C235.551 41.844 236.013 42.405 236.013 43.923V60.852C236.013 62.37 235.551 62.931 234.231 62.931H234.132V63.624H235.122C236.013 63.624 236.772 63.525 237.828 63.525C238.851 63.525 239.643 63.624 240.501 63.624H241.491V62.931H241.392C240.072 62.931 239.61 62.37 239.61 60.852V53.229H243.57L248.982 63.624C249.906 63.624 250.533 63.525 251.358 63.525C252.579 63.525 252.876 63.624 254.625 63.624ZM248.223 47.223C248.223 50.622 247.167 52.206 244.296 52.206H239.61V42.207H243.999C247.2 42.207 248.223 43.989 248.223 47.223Z" fill="#003720"/>
<path d="M271.783 64.746L274.885 56.166L274.291 55.869C272.443 58.641 270.991 60.588 270.001 61.545C269.044 62.469 268.318 62.568 267.064 62.568H261.718V52.734H265.348C267.658 52.734 268.054 54.582 268.351 57.024H269.011V47.52H268.351C268.054 49.962 267.658 51.711 265.348 51.711H261.718V42.207H266.833C268.054 42.207 268.846 42.306 269.671 43.065C270.628 43.989 271.75 45.507 273.73 48.246L274.324 47.982L271.552 40.029L270.892 40.194C270.925 40.821 270.595 41.151 269.704 41.151H263.368C262.312 41.151 261.124 41.184 259.936 41.184C258.88 41.184 258.121 41.151 257.23 41.151H256.24V41.844H256.339C257.659 41.844 258.121 42.405 258.121 43.923V60.852C258.121 62.37 257.659 62.931 256.339 62.931H256.24V63.624H257.23C258.121 63.624 258.88 63.591 259.936 63.591C261.124 63.591 261.949 63.624 263.005 63.624H269.935C270.826 63.624 271.156 63.954 271.123 64.581L271.783 64.746Z" fill="#003720"/>
<path d="M19.8 85.404C19.8 78.144 15.18 74.151 9.537 74.151H7.425C6.204 74.151 5.313 74.184 3.96 74.184C2.904 74.184 2.145 74.151 1.254 74.151H0.264V74.844H0.363C1.683 74.844 2.145 75.405 2.145 76.923V93.852C2.145 95.37 1.683 95.931 0.363 95.931H0.264V96.624H1.254C2.145 96.624 2.904 96.591 3.96 96.591C5.313 96.591 6.204 96.624 7.425 96.624H9.537C15.18 96.624 19.8 92.631 19.8 85.404ZM15.774 85.404C15.774 92.664 14.025 95.568 8.976 95.568H5.742V75.207H8.976C14.025 75.207 15.774 78.078 15.774 85.404Z" fill="#003720"/>
<path d="M37.8177 97.746L40.9197 89.166L40.3257 88.869C38.4777 91.641 37.0257 93.588 36.0357 94.545C35.0787 95.469 34.3527 95.568 33.0987 95.568H27.7527V85.734H31.3827C33.6927 85.734 34.0887 87.582 34.3857 90.024H35.0457V80.52H34.3857C34.0887 82.962 33.6927 84.711 31.3827 84.711H27.7527V75.207H32.8677C34.0887 75.207 34.8807 75.306 35.7057 76.065C36.6627 76.989 37.7847 78.507 39.7647 81.246L40.3587 80.982L37.5867 73.029L36.9267 73.194C36.9597 73.821 36.6297 74.151 35.7387 74.151H29.4027C28.3467 74.151 27.1587 74.184 25.9707 74.184C24.9147 74.184 24.1557 74.151 23.2647 74.151H22.2747V74.844H22.3737C23.6937 74.844 24.1557 75.405 24.1557 76.923V93.852C24.1557 95.37 23.6937 95.931 22.3737 95.931H22.2747V96.624H23.2647C24.1557 96.624 24.9147 96.591 25.9707 96.591C27.1587 96.591 27.9837 96.624 29.0397 96.624H35.9697C36.8607 96.624 37.1907 96.954 37.1577 97.581L37.8177 97.746Z" fill="#003720"/>
<path d="M58.1836 96.624V95.931H57.2596C55.5106 95.931 55.0486 95.304 55.0486 93.819V86.526H59.5696C64.3546 86.526 67.5226 84.381 67.5226 80.256C67.5226 76.23 64.3546 74.151 59.5696 74.151H56.7316C55.5106 74.151 54.6196 74.184 53.2666 74.184C52.2106 74.184 51.4516 74.151 50.5606 74.151H49.5706V74.844H49.6696C50.9896 74.844 51.4516 75.405 51.4516 76.923V93.852C51.4516 95.37 50.9896 95.931 49.6696 95.931H49.5706V96.624H50.5606C51.4846 96.624 52.2766 96.525 53.3656 96.525C54.5536 96.525 55.6426 96.624 56.6656 96.624H58.1836ZM59.3386 85.47H55.0486V75.207H59.3386C62.5726 75.207 63.5956 76.725 63.5956 80.256C63.5956 83.853 62.5726 85.47 59.3386 85.47Z" fill="#003720"/>
<path d="M74.9647 93.852V76.923C74.9647 75.405 75.4267 74.844 76.7467 74.844H76.8457V74.151H75.8557C74.9977 74.151 74.2057 74.25 73.1497 74.25C72.1267 74.25 71.3677 74.151 70.4767 74.151H69.4867V74.844H69.5857C70.9057 74.844 71.3677 75.405 71.3677 76.923V93.852C71.3677 95.37 70.9057 95.931 69.5857 95.931H69.4867V96.624H70.4767C71.3677 96.624 72.1267 96.525 73.1497 96.525C74.2057 96.525 74.9977 96.624 75.8557 96.624H76.8457V95.931H76.7467C75.4267 95.931 74.9647 95.37 74.9647 93.852Z" fill="#003720"/>
<path d="M88.9149 96.888C93.2709 96.888 96.5379 93.786 97.9899 90.09L97.3629 89.826C96.0429 92.565 93.9639 94.347 90.9939 94.347C86.4069 94.347 82.4469 89.826 82.4469 82.896C82.4469 77.88 85.5489 74.844 89.1129 74.844C91.2909 74.844 93.8979 75.768 97.2969 81.741L97.8579 81.477L95.1849 73.26L94.5909 73.425C94.6239 74.085 94.3269 74.448 93.5349 74.448C92.5779 74.448 91.3239 73.821 89.1129 73.821C84.6909 73.821 79.3119 77.847 79.3119 85.305C79.3119 92.103 83.5689 96.888 88.9149 96.888Z" fill="#003720"/>
<path d="M121.227 96.624V95.931C120.039 95.931 119.379 95.436 118.851 94.149L110.733 74.151C110.106 74.151 109.611 74.184 108.918 74.184C108.225 74.184 107.565 74.151 106.872 74.151L107.862 76.692L101.922 91.872C100.833 94.677 99.5793 95.898 98.0943 95.931V96.624H98.6883C99.4143 96.624 100.734 96.525 101.427 96.525C102.318 96.525 103.539 96.624 104.43 96.624H104.859V95.931C103.308 95.931 102.516 95.238 102.516 94.05C102.516 93.555 102.615 92.994 102.945 92.136L103.407 90.882H113.637L114.825 93.786C115.023 94.281 115.089 94.677 115.089 94.941C115.089 95.634 114.693 95.931 113.571 95.931V96.624H114.594C115.287 96.624 116.343 96.525 117.399 96.525C118.356 96.525 119.445 96.624 120.171 96.624H121.227ZM113.241 89.859H103.803L108.423 77.979L113.241 89.859Z" fill="#003720"/>
<path d="M142.863 96.624V95.931C141.543 95.898 140.718 95.7 139.398 93.192L136.725 87.978C134.217 87.978 133.656 87.549 132.963 86.229H133.227C137.682 86.229 140.289 83.523 140.289 80.091C140.289 76.296 137.154 74.151 132.501 74.151H129.135C128.079 74.151 127.254 74.184 126.066 74.184C125.01 74.184 124.251 74.151 123.36 74.151H122.37V74.844H122.469C123.789 74.844 124.251 75.405 124.251 76.923V93.852C124.251 95.37 123.789 95.931 122.469 95.931H122.37V96.624H123.36C124.251 96.624 125.01 96.525 126.066 96.525C127.089 96.525 127.881 96.624 128.739 96.624H129.729V95.931H129.63C128.31 95.931 127.848 95.37 127.848 93.852V86.229H131.808L137.22 96.624C138.144 96.624 138.771 96.525 139.596 96.525C140.817 96.525 141.114 96.624 142.863 96.624ZM136.461 80.223C136.461 83.622 135.405 85.206 132.534 85.206H127.848V75.207H132.237C135.438 75.207 136.461 76.989 136.461 80.223Z" fill="#003720"/>
<path d="M164.014 85.404C164.014 78.144 159.394 74.151 153.751 74.151H151.639C150.418 74.151 149.527 74.184 148.174 74.184C147.118 74.184 146.359 74.151 145.468 74.151H144.478V74.844H144.577C145.897 74.844 146.359 75.405 146.359 76.923V93.852C146.359 95.37 145.897 95.931 144.577 95.931H144.478V96.624H145.468C146.359 96.624 147.118 96.591 148.174 96.591C149.527 96.591 150.418 96.624 151.639 96.624H153.751C159.394 96.624 164.014 92.631 164.014 85.404ZM159.988 85.404C159.988 92.664 158.239 95.568 153.19 95.568H149.956V75.207H153.19C158.239 75.207 159.988 78.078 159.988 85.404Z" fill="#003720"/>
<path d="M171.967 93.852V76.923C171.967 75.405 172.429 74.844 173.749 74.844H173.848V74.151H172.858C172 74.151 171.208 74.25 170.152 74.25C169.129 74.25 168.37 74.151 167.479 74.151H166.489V74.844H166.588C167.908 74.844 168.37 75.405 168.37 76.923V93.852C168.37 95.37 167.908 95.931 166.588 95.931H166.489V96.624H167.479C168.37 96.624 169.129 96.525 170.152 96.525C171.208 96.525 172 96.624 172.858 96.624H173.848V95.931H173.749C172.429 95.931 171.967 95.37 171.967 93.852Z" fill="#003720"/>
<path d="M192.151 97.746L195.253 89.166L194.659 88.869C192.811 91.641 191.359 93.588 190.369 94.545C189.412 95.469 188.686 95.568 187.432 95.568H182.086V85.734H185.716C188.026 85.734 188.422 87.582 188.719 90.024H189.379V80.52H188.719C188.422 82.962 188.026 84.711 185.716 84.711H182.086V75.207H187.201C188.422 75.207 189.214 75.306 190.039 76.065C190.996 76.989 192.118 78.507 194.098 81.246L194.692 80.982L191.92 73.029L191.26 73.194C191.293 73.821 190.963 74.151 190.072 74.151H183.736C182.68 74.151 181.492 74.184 180.304 74.184C179.248 74.184 178.489 74.151 177.598 74.151H176.608V74.844H176.707C178.027 74.844 178.489 75.405 178.489 76.923V93.852C178.489 95.37 178.027 95.931 176.707 95.931H176.608V96.624H177.598C178.489 96.624 179.248 96.591 180.304 96.591C181.492 96.591 182.317 96.624 183.373 96.624H190.303C191.194 96.624 191.524 96.954 191.491 97.581L192.151 97.746Z" fill="#003720"/>
<path d="M247.052 96.954C251.441 96.954 254.807 94.248 254.807 90.024C254.807 86.79 253.025 85.041 249.89 83.622C252.002 82.632 253.454 81.081 253.454 78.804C253.454 75.669 250.451 73.821 246.986 73.821C243.323 73.821 240.287 76.263 240.287 79.926C240.287 82.269 241.805 84.15 243.884 85.173C240.947 86.361 239.264 88.539 239.264 90.882C239.264 94.578 242.366 96.954 247.052 96.954ZM251.012 78.804C251.012 80.487 250.451 82.236 249.098 83.292L246.227 82.137C243.851 81.18 242.861 79.959 242.861 78.342C242.861 76.395 244.412 74.844 246.953 74.844C249.725 74.844 251.012 76.395 251.012 78.804ZM247.085 95.931C243.587 95.931 242.135 93.423 242.135 90.618C242.135 88.506 242.96 86.625 244.709 85.536L247.91 86.79C250.385 87.747 251.936 89.1 251.936 91.443C251.936 93.951 250.319 95.931 247.085 95.931Z" fill="#003720"/>
<path d="M266.38 96.954C271.297 96.954 275.026 92.235 275.026 85.371C275.026 78.507 271.297 73.821 266.38 73.821C261.496 73.821 257.734 78.507 257.734 85.371C257.734 92.235 261.496 96.954 266.38 96.954ZM266.38 95.931C262.255 95.931 261.694 91.806 261.694 85.371C261.694 78.936 262.255 74.844 266.38 74.844C270.538 74.844 271.099 78.936 271.099 85.371C271.099 91.806 270.538 95.931 266.38 95.931Z" fill="#003720"/>
</svg>
