<svg width="72" height="74" viewBox="0 0 72 74" fill="none" xmlns="http://www.w3.org/2000/svg">
<rect width="72" height="74" fill="#125347"/>
<path d="M38.0476 10.4821L38.2275 8.28153C37.1799 8.19729 36.1217 8.19729 35.0846 8.30259C33.8783 8.41841 32.6825 8.66058 31.5185 9.01857L32.1852 11.1244C34.0688 10.5348 36.0793 10.3137 38.0476 10.4821Z" fill="#C4F8BC"/>
<path d="M25.5396 15.2519L23.9206 13.7357C22.3544 15.3782 21.1481 17.2945 20.3227 19.4109L22.3968 20.2111C23.1163 18.358 24.1745 16.6944 25.5396 15.2519Z" fill="#C4F8BC"/>
<path d="M49.5926 17.2313L51.4338 15.9994C50.164 14.1147 48.5555 12.5037 46.6719 11.2402L45.4338 13.0723C47.0846 14.1779 48.4815 15.5783 49.5926 17.2313Z" fill="#C4F8BC"/>
<path d="M19.2963 28.2659C19.6137 30.5087 20.365 32.6356 21.5079 34.6045L21.5291 34.6361L23.4338 33.499C22.4285 31.7722 21.7725 29.9085 21.4973 27.9501L19.2963 28.2659Z" fill="#C4F8BC"/>
<path d="M24.7037 26.7076C24.5767 25.0545 24.7778 23.4225 25.3174 21.8642L23.0106 21.0745C22.3651 22.9487 22.1111 24.9071 22.2698 26.8971L24.7037 26.7076Z" fill="#C4F8BC"/>
<path d="M43.1481 15.5467L44.4391 13.483C42.7354 12.43 40.873 11.7562 38.9047 11.4613L38.5449 13.862C40.1851 14.1042 41.7407 14.6728 43.1481 15.5467Z" fill="#C4F8BC"/>
<path d="M47.2433 19.7268C48.0793 21.1587 48.5978 22.717 48.7989 24.3596L51.2222 24.0753C50.9894 22.0958 50.3545 20.2322 49.3597 18.5159L47.2433 19.7268Z" fill="#C4F8BC"/>
<path d="M28.6296 37.7843L29.9947 35.7733L29.9735 35.7627C28.5979 34.8256 27.4444 33.6569 26.5556 32.267L24.4921 33.5726C25.5608 35.2468 26.9365 36.6577 28.5979 37.7843H28.6296Z" fill="#C4F8BC"/>
<path d="M26.8518 15.1992L28.5132 16.9786C29.7195 15.852 31.1375 14.9991 32.7037 14.4411L31.8888 12.1563C30.0053 12.8196 28.3121 13.8409 26.8518 15.1992Z" fill="#C4F8BC"/>
<path d="M34.0264 64.4443L33.8359 66.7186C34.9153 66.8028 36.0052 66.8028 37.0846 66.6975C38.3333 66.5817 39.5714 66.329 40.7672 65.9605L40.0793 63.7809C38.1428 64.3916 36.0687 64.6127 34.0264 64.4443Z" fill="#C4F8BC"/>
<path d="M46.947 59.5166L48.619 61.0854C50.2275 59.3797 51.4867 57.4108 52.3333 55.2207L50.1957 54.3994C49.4444 56.3052 48.3544 58.032 46.947 59.5166Z" fill="#C4F8BC"/>
<path d="M22.1111 57.4739L20.2063 58.748C21.5185 60.6959 23.1693 62.3595 25.1269 63.6651L26.4074 61.7804C24.7037 60.6327 23.2539 59.1797 22.1111 57.4739Z" fill="#C4F8BC"/>
<path d="M53.3914 46.0814C53.0634 43.7649 52.2909 41.5643 51.1057 39.5322L51.0846 39.5006L49.1269 40.6694C50.1639 42.4488 50.8412 44.3756 51.1269 46.3972L53.3914 46.0814Z" fill="#C4F8BC"/>
<path d="M47.8149 47.6818C47.9524 49.3875 47.7302 51.0722 47.1799 52.6831L49.5609 53.5044C50.2276 51.567 50.4921 49.5454 50.3334 47.4922L47.8149 47.6818Z" fill="#C4F8BC"/>
<path d="M28.7566 59.2112L27.4232 61.3381C29.1798 62.4226 31.1058 63.1281 33.1375 63.4229L33.5079 60.938C31.8147 60.7064 30.2169 60.1168 28.7566 59.2112Z" fill="#C4F8BC"/>
<path d="M24.5344 54.8943C23.6772 53.4202 23.1375 51.8092 22.9259 50.114L20.418 50.4089C20.6614 52.4515 21.3174 54.3784 22.3439 56.1578L24.5344 54.8943Z" fill="#C4F8BC"/>
<path d="M43.7513 36.247L42.3439 38.3318L42.365 38.3423C43.7936 39.311 44.9788 40.5219 45.8994 41.9539L48.0264 40.6061C46.9259 38.8793 45.4973 37.4158 43.783 36.2576L43.7513 36.247Z" fill="#C4F8BC"/>
<path d="M45.5925 59.5797L43.8677 57.7477C42.619 58.9059 41.1587 59.7903 39.5396 60.3589L40.3862 62.728C42.3333 62.0331 44.0899 60.9696 45.5925 59.5797Z" fill="#C4F8BC"/>
<path d="M66.7989 64.6338H66.9682V66.329H64.8412C62.6296 66.329 62.4391 66.0763 59.8042 66.0763C57.1693 66.0763 56.5026 66.329 54.291 66.329H52.164V64.6338H52.2486C55.7301 64.6338 56.8412 63.4545 56.8412 59.6429V38.2476H15.127V59.6429C15.127 63.444 16.1428 64.6338 19.6349 64.6338H19.8042V66.329H17.6772C15.4656 66.329 15.2751 66.0763 12.6402 66.0763C10.0053 66.0763 9.33862 66.329 7.12698 66.329H5V64.6338H5.16931C8.56613 64.6338 9.67725 63.4545 9.67725 59.6429V15.4098C9.67725 11.6088 8.57672 10.419 5.16931 10.419H5V8.72375H7.12698C9.33862 8.72375 10.0053 8.97646 12.6402 8.97646C15.2751 8.97646 15.4656 8.72375 17.6772 8.72375H19.8042V10.419H19.6349C16.1534 10.419 15.127 11.5982 15.127 15.4098V35.7943H56.8518V15.4098C56.8518 11.6088 55.7513 10.419 52.2592 10.419H52.1746V8.72375H54.3016C56.5132 8.72375 57.1799 8.97646 59.8148 8.97646C62.4497 8.97646 62.6402 8.72375 64.8518 8.72375H66.9788V10.419H66.7989C63.3174 10.419 62.2063 11.5982 62.2063 15.4098V59.6429C62.2169 63.444 63.3174 64.6338 66.7989 64.6338Z" fill="#C4F8BC"/>
<path d="M36.1216 30.1085C35.6877 30.1085 35.2221 30.0664 34.7142 30.0664C34.2486 30.0664 33.91 30.1085 33.5184 30.1085H33.0952V29.8137H33.1375C33.6983 29.8137 33.8994 29.5716 33.8994 28.9293V21.7378C33.8994 21.0956 33.6983 20.8534 33.1375 20.8534H33.0952V20.5586H33.5184C33.8994 20.5586 34.2274 20.5691 34.6719 20.5691C35.2539 20.5691 35.6348 20.5586 36.1534 20.5586H37.3703C39.4126 20.5586 40.7671 21.443 40.7671 23.1487C40.7671 24.8966 39.4126 25.8126 37.3703 25.8126H35.4444V28.9082C35.4444 29.54 35.6454 29.8032 36.3862 29.8032H36.7777V30.098H36.1216V30.1085ZM39.074 23.1593C39.074 21.6641 38.6401 21.0113 37.2539 21.0113H35.4232V25.3704H37.2539C38.6401 25.3704 39.074 24.686 39.074 23.1593Z" fill="#C4F8BC"/>
<path d="M27.783 51.1143C27.783 50.0298 28.5661 49.019 29.9417 48.4609C28.9682 47.9871 28.2592 47.1132 28.2592 46.0287C28.2592 44.323 29.6772 43.1964 31.3809 43.1964C32.9999 43.1964 34.3968 44.0492 34.3968 45.5128C34.3968 46.5657 33.7195 47.2922 32.7354 47.745C34.1957 48.4083 35.0317 49.219 35.0317 50.7142C35.0317 52.6726 33.4655 53.9361 31.4126 53.9361C29.2222 53.9361 27.783 52.8305 27.783 51.1143ZM33.6878 51.3775C33.6878 50.293 32.9682 49.6613 31.8042 49.219L30.3121 48.6399C29.4973 49.1453 29.1058 50.0193 29.1058 50.9985C29.1058 52.3041 29.783 53.4623 31.4126 53.4623C32.9364 53.4623 33.6878 52.5357 33.6878 51.3775ZM31.3703 43.6702C30.1851 43.6702 29.4656 44.3861 29.4656 45.2917C29.4656 46.0392 29.9312 46.6078 31.0317 47.05L32.3756 47.587C33.0105 47.0921 33.2645 46.2814 33.2645 45.5022C33.2645 44.3861 32.6613 43.6702 31.3703 43.6702Z" fill="#C4F8BC"/>
<path d="M36.0688 48.5136C36.0688 45.3232 37.8254 43.1542 40.1005 43.1542C42.3968 43.1542 44.1323 45.3338 44.1323 48.5136C44.1323 51.7039 42.3968 53.894 40.1005 53.894C37.8254 53.894 36.0688 51.7039 36.0688 48.5136ZM42.3122 48.5136C42.3122 45.5233 42.0476 43.628 40.1111 43.628C38.1852 43.628 37.9206 45.5233 37.9206 48.5136C37.9206 51.5039 38.1852 53.4202 40.1111 53.4202C42.0476 53.4202 42.3122 51.5039 42.3122 48.5136Z" fill="#C4F8BC"/>
</svg>
