<svg width="51" height="51" viewBox="0 0 51 51" fill="none" xmlns="http://www.w3.org/2000/svg">
<rect width="51" height="51" fill="#C4F8BC"/>
<g clip-path="url(#clip0)">
<path d="M46.3457 25.2519H49C49 25.2271 49 25.2271 49 25.2023C49 21.6797 48.1737 18.3308 46.7213 15.3539L44.3174 16.5198C42.9902 13.8159 41.037 11.3848 38.6581 9.52426L40.3359 7.41566C37.6815 5.30706 34.5264 3.76902 31.0958 3L30.4948 5.62955C27.54 4.98456 24.3849 4.98456 21.43 5.65436L20.804 3.02481C17.3734 3.81863 14.2433 5.35667 11.589 7.46527L13.2667 9.54906C10.8879 11.4344 8.93468 13.8655 7.63255 16.5695L5.22863 15.4283C3.80131 18.4052 3 21.7293 3 25.2271C3 25.2767 3 25.3015 3 25.3512H5.62929C5.62929 28.4272 6.30539 31.3545 7.65759 34.1081L5.3288 35.2244C6.85629 38.3004 9.03484 40.9796 11.7142 43.0882L13.3168 41.1036C15.6957 42.989 18.5253 44.3286 21.4801 44.9984L20.9292 47.4543C22.5819 47.8264 24.2847 48.0248 26.0376 48.0248C27.7904 48.0248 29.4932 47.8264 31.1208 47.4543L30.5449 44.9984C33.4997 44.3286 36.3293 42.989 38.7082 41.1036L40.3108 43.0882C42.9902 40.9796 45.1938 38.2756 46.6962 35.1996L44.3424 34.0832C45.6696 31.3545 46.3457 28.4024 46.3457 25.3264V25.2519ZM40.6113 17.9338L38.1573 19.1742C37.3059 17.5369 36.1541 16.0981 34.7017 14.9074L34.6766 14.8826L36.4295 12.774L36.4545 12.7988C38.2074 14.2128 39.6097 15.9493 40.6113 17.9338ZM42.3892 25.5992C42.3391 27.8319 41.8634 29.9901 40.9369 32.0243L38.4328 30.8831C39.209 29.1963 39.6097 27.4101 39.6598 25.5496L42.3892 25.5992ZM30.7452 6.1505C33.2493 6.77067 35.5781 7.83738 37.6565 9.3258L36.1791 11.3352C34.3511 10.0452 32.3228 9.10254 30.1443 8.55678L30.7452 6.1505ZM29.2428 9.37541L28.6919 12.0546C26.8889 11.6825 24.9858 11.6825 23.1579 12.0794L22.5819 9.40022C24.7855 8.95369 27.0642 8.92889 29.2428 9.37541ZM17.6739 7.39085C18.6255 6.94432 19.6271 6.59702 20.6538 6.29934L21.3299 8.68082C20.4535 8.92889 19.577 9.25138 18.7256 9.62348C17.5237 10.1692 16.3968 10.839 15.3702 11.6329L13.8427 9.6731C15.0196 8.78004 16.2967 8.01103 17.6739 7.39085ZM6.08002 24.9791C6.1301 22.4239 6.65596 19.9432 7.65759 17.6114L9.96135 18.5788C9.08492 20.6378 8.60915 22.796 8.5841 25.0287L6.08002 24.9791ZM12.3402 25.624C12.3903 27.4846 12.816 29.2707 13.5923 30.9576L11.0882 32.0987C10.1617 30.0645 9.63582 27.9063 9.58574 25.6737L12.3402 25.624ZM13.2918 40.5331C11.3136 38.9206 9.6859 36.9609 8.4589 34.7034L10.6625 33.5375C11.7392 35.4972 13.1415 37.2089 14.8944 38.6229L13.2918 40.5331ZM13.7676 19.2238L11.3136 17.9835C11.8645 16.892 12.5406 15.8501 13.3419 14.9074C13.9679 14.1384 14.6941 13.4438 15.4453 12.8236L17.2232 14.9074C16.5972 15.4283 15.9962 16.0237 15.4703 16.6439C14.8193 17.4625 14.2433 18.3308 13.7676 19.2238ZM16.0463 38.2508L17.724 36.0678C19.2265 37.1841 20.9042 38.0028 22.7071 38.4245L22.0561 41.0788C19.8775 40.5579 17.8492 39.6152 16.0463 38.2508ZM26.0125 45.048C25.9875 45.048 25.9875 45.048 26.0125 45.048C24.8356 45.048 23.6336 44.9487 22.4818 44.7255L22.9325 42.2944C23.9592 42.468 24.9858 42.5673 26.0125 42.5673C27.2145 42.5673 28.4164 42.4432 29.5683 42.1952L30.0942 44.6262C28.742 44.8991 27.3647 45.048 26.0125 45.048ZM29.994 41.0788L29.3179 38.4245C31.1459 37.978 32.8236 37.1593 34.301 36.043L35.9788 38.2012C34.2009 39.5656 32.1976 40.5331 29.994 41.0788ZM39.1089 40.161L37.4562 38.3004C39.1339 36.8368 40.5112 35.0755 41.5378 33.091L43.7665 34.2073C42.6146 36.4647 41.037 38.4741 39.1089 40.161ZM43.3909 24.5077C43.2907 22.2999 42.7648 20.1417 41.8133 18.1075L44.067 17.0408L44.092 17.0656C45.1688 19.3727 45.7697 21.8534 45.8949 24.3837L43.3909 24.5077Z" fill="#125347"/>
</g>
<defs>
<clipPath id="clip0">
<rect width="46" height="45" fill="white" transform="translate(3 3)"/>
</clipPath>
</defs>
</svg>
