<svg width="52" height="51" viewBox="0 0 52 51" fill="none" xmlns="http://www.w3.org/2000/svg">
<rect width="52" height="51" fill="#C4F8BC"/>
<path d="M8.38646 18.7785C8.69304 17.9088 8.23317 16.9367 7.36453 16.6298C6.49588 16.3228 5.52505 16.7833 5.21847 17.653C4.91189 18.5227 5.37176 19.4947 6.2404 19.8016C7.10904 20.1342 8.07988 19.6737 8.38646 18.7785Z" fill="#125347"/>
<path d="M20.7077 45.0344C21.0511 44.1678 20.6278 43.1864 19.7622 42.8426C18.8966 42.4987 17.9165 42.9225 17.573 43.7892C17.2296 44.6558 17.6529 45.6372 18.5185 45.981C19.3841 46.3249 20.3642 45.9011 20.7077 45.0344Z" fill="#125347"/>
<path d="M35.4357 6.31358C35.6634 5.40944 35.1159 4.49168 34.2129 4.26371C33.3098 4.03574 32.3932 4.58388 32.1655 5.48803C31.9378 6.39217 32.4853 7.30993 33.3883 7.5379C34.2914 7.76587 35.208 7.21772 35.4357 6.31358Z" fill="#125347"/>
<path d="M46.0338 33.2384C46.8737 32.8356 47.2284 31.8274 46.8261 30.9865C46.4238 30.1455 45.4168 29.7904 44.5769 30.1932C43.737 30.596 43.3823 31.6042 43.7846 32.4451C44.1869 33.286 45.1939 33.6412 46.0338 33.2384Z" fill="#125347"/>
<path d="M19.4564 7.74209C20.1376 7.10629 20.1751 6.03797 19.54 5.35592C18.905 4.67388 17.838 4.63639 17.1568 5.27218C16.4756 5.90798 16.4381 6.97631 17.0732 7.65835C17.7082 8.3404 18.7752 8.37789 19.4564 7.74209Z" fill="#125347"/>
<path d="M9.23077 34.563C9.54022 33.6835 9.07904 32.7195 8.20068 32.4096C7.32232 32.0998 6.3594 32.5615 6.04994 33.441C5.74049 34.3204 6.20168 35.2845 7.08004 35.5943C7.9584 35.9042 8.92131 35.4424 9.23077 34.563Z" fill="#125347"/>
<path d="M45.2016 18.0367C46.0447 17.6274 46.4024 16.6298 45.9936 15.7857C45.5849 14.9416 44.5885 14.5834 43.7454 14.9927C42.9023 15.402 42.5446 16.3996 42.9534 17.2437C43.3366 18.0878 44.3585 18.446 45.2016 18.0367Z" fill="#125347"/>
<path d="M35.5867 45.1561C36.3953 44.6936 36.6764 43.6624 36.2145 42.8528C35.7526 42.0432 34.7226 41.7618 33.914 42.2243C33.1054 42.6867 32.8243 43.718 33.2862 44.5276C33.7481 45.3371 34.7781 45.6186 35.5867 45.1561Z" fill="#125347"/>
<path d="M27.6755 6.39801H24.3031V15.0439H27.6755V6.39801Z" fill="#125347"/>
<path d="M38.014 10.6706L31.908 16.7841L34.2926 19.1716L40.3986 13.0581L38.014 10.6706Z" fill="#125347"/>
<path d="M44.7161 23.4084H36.0808V26.7849H44.7161V23.4084Z" fill="#125347"/>
<path d="M34.3239 31.0319L31.9393 33.4194L38.0454 39.5329L40.43 37.1454L34.3239 31.0319Z" fill="#125347"/>
<path d="M27.7266 35.2005H24.3542V43.8464H27.7266V35.2005Z" fill="#125347"/>
<path d="M17.7271 31.0451L11.621 37.1586L14.0056 39.5461L20.1117 33.4327L17.7271 31.0451Z" fill="#125347"/>
<path d="M15.9488 23.4595H7.31348V26.836H15.9488V23.4595Z" fill="#125347"/>
<path d="M13.9923 10.702L11.6077 13.0895L17.7137 19.203L20.0983 16.8155L13.9923 10.702Z" fill="#125347"/>
</svg>
