<svg width="44" height="43" viewBox="0 0 44 43" fill="none" xmlns="http://www.w3.org/2000/svg">
<rect width="44" height="43" fill="#C4F8BC"/>
<path d="M30.9354 33.4032H12.7903L13.5161 35.9435H30.2096L30.9354 33.4032Z" fill="#125347"/>
<path d="M35.2903 8H9.16125L13.5161 35.9436H30.5725L35.2903 8Z" stroke="#125347"/>
<path d="M22.2258 8V35.9435M12.4274 8L15.6935 35.9435M15.6935 8L17.8709 35.9435M18.9596 8L20.0483 35.9435M32.0241 8L28.758 35.9435M28.758 8L26.5806 35.9435M25.4919 8L24.4032 35.9435" stroke="#125347"/>
<path d="M9.5 12H35" stroke="#125347"/>
<path d="M10 16H34" stroke="#125347"/>
<path d="M11 20H33" stroke="#125347"/>
<path d="M11.5 24H32.5" stroke="#125347"/>
<path d="M12 28H32" stroke="#125347"/>
<path d="M13 31H31.5" stroke="#125347"/>
</svg>
